<svg width="131" height="131" viewBox="0 0 131 131" fill="none" xmlns="http://www.w3.org/2000/svg">
<g clip-path="url(#clip0_29_47)">
<path d="M0 47.4095C0 30.8146 0 22.5172 3.22958 16.1788C6.0704 10.6034 10.6034 6.0704 16.1788 3.22958C22.5172 0 30.8146 0 47.4095 0H83.5905C100.185 0 108.483 0 114.821 3.22958C120.397 6.0704 124.93 10.6034 127.77 16.1788C131 22.5172 131 30.8146 131 47.4095V83.5905C131 100.185 131 108.483 127.77 114.821C124.93 120.397 120.397 124.93 114.821 127.77C108.483 131 100.185 131 83.5905 131H47.4095C30.8146 131 22.5172 131 16.1788 127.77C10.6034 124.93 6.0704 120.397 3.22958 114.821C0 108.483 0 100.185 0 83.5905V47.4095Z" fill="#00005B"/>
<path d="M28.0713 92.6155V33.723C28.0713 33.3223 28.2355 33.0934 28.6188 33.0934C34.2762 33.0934 39.9311 32.75 45.5901 32.75C54.7726 32.75 64.7152 35.9503 68.2003 45.7418C69.0215 48.1456 69.4595 50.6066 69.4595 53.1821C69.4595 58.1041 68.3645 62.1677 66.1747 65.3727C60.0575 74.3256 49.4552 74.1865 39.9512 74.1865V92.5583C40.0255 93.1021 39.5708 93.3595 39.13 93.3595H28.7282C28.2903 93.3595 28.0713 93.1306 28.0713 92.6155ZM40.006 44.1393V63.3695C43.7743 63.6509 47.7177 63.6815 51.3384 62.4538C55.3357 61.2785 57.5248 57.7516 57.5248 53.5255C57.6359 49.9244 55.7107 46.4691 52.4334 45.1695C48.8562 43.6535 43.8673 43.5626 40.006 44.1393Z" fill="#9999FF"/>
<path d="M76.8806 47.7772H86.4882C87.018 47.7821 87.4936 48.1646 87.6339 48.6987C88.338 50.3331 88.4247 52.3039 88.4273 54.0684C90.0749 52.0628 92.0617 50.3917 94.2885 49.1388C96.6768 47.7259 99.3844 47.0098 102.128 47.0655C102.583 46.9974 102.987 47.4187 102.922 47.8948V59.0443C102.922 59.4748 102.627 59.6893 102.04 59.6893C97.9736 59.3959 91.6423 60.4004 88.6875 63.7436V92.7341C88.6875 93.287 88.4524 93.5635 87.9823 93.5634H77.674C77.1676 93.6394 76.7209 93.1629 76.7924 92.6419V61.1636C76.7924 56.9455 76.8799 52.6006 76.2637 48.4224C76.1687 48.0379 76.5209 47.6803 76.8806 47.7772Z" fill="#9999FF"/>
</g>
<defs>
<clipPath id="clip0_29_47">
<rect width="131" height="131" fill="white"/>
</clipPath>
</defs>
</svg>
