<svg width="150" height="150" viewBox="0 0 150 150" fill="none" xmlns="http://www.w3.org/2000/svg">
<path d="M31.1555 15.2344C22.5966 15.2344 16.2636 22.7255 16.547 30.8496C16.8191 38.6547 16.4657 48.7632 13.9208 57.0068C11.3682 65.2746 7.05127 70.5119 0 71.1844V78.7759C7.05127 79.4484 11.3682 84.6857 13.9208 92.9534C16.4657 101.197 16.8191 111.306 16.547 119.111C16.2636 127.234 22.5966 134.726 31.1568 134.726H118.856C127.415 134.726 133.747 127.235 133.463 119.111C133.191 111.306 133.544 101.197 136.089 92.9534C138.643 84.6857 142.949 79.4484 150 78.7759V71.1844C142.949 70.5119 138.643 65.2746 136.089 57.0068C133.544 48.7645 133.191 38.6547 133.463 30.8496C133.747 22.7267 127.415 15.2344 118.856 15.2344H31.1542H31.1555ZM101.695 88.789C101.695 99.9755 93.3508 106.76 79.5038 106.76H55.9322C54.5281 106.76 53.3898 105.622 53.3898 104.217V45.7428C53.3898 44.3387 54.5281 43.2005 55.9322 43.2005H79.3691C90.9153 43.2005 98.4928 49.4547 98.4928 59.0573C98.4928 65.7971 93.3953 71.8314 86.9008 72.8878V73.2399C95.7419 74.2098 101.695 80.3318 101.695 88.789ZM76.9335 51.2598H63.4932V70.2437H74.8131C83.564 70.2437 88.3894 66.72 88.3894 60.4212C88.3894 54.5191 84.2402 51.2598 76.9335 51.2598ZM63.4932 77.7767V98.6979H77.428C86.5386 98.6979 91.3653 95.042 91.3653 88.1712C91.3653 81.2992 86.4038 77.7755 76.842 77.7755H63.4932V77.7767Z" fill="#7E13F8"/>
<path d="M101.695 88.789C101.695 99.9754 93.3509 106.76 79.5039 106.76H55.9323C54.5282 106.76 53.3899 105.622 53.3899 104.217V45.7428C53.3899 44.3387 54.5282 43.2004 55.9323 43.2004H79.3691C90.9153 43.2004 98.4929 49.4547 98.4929 59.0572C98.4929 65.7971 93.3954 71.8314 86.9009 72.8877V73.2398C95.742 74.2098 101.695 80.3318 101.695 88.789ZM76.9335 51.2598H63.4933V70.2437H74.8132C83.564 70.2437 88.3895 66.7199 88.3895 60.4212C88.3895 54.5191 84.2403 51.2598 76.9335 51.2598ZM63.4933 77.7767V98.6979H77.428C86.5386 98.6979 91.3653 95.042 91.3653 88.1712C91.3653 81.2992 86.4039 77.7754 76.842 77.7754H63.4933V77.7767Z" fill="white"/>
</svg>
