<svg width="155" height="155" viewBox="0 0 155 155" fill="none" xmlns="http://www.w3.org/2000/svg">
<path fill-rule="evenodd" clip-rule="evenodd" d="M144.615 46.3436C144.614 43.805 144.071 41.5618 142.973 39.6366C141.895 37.7435 140.28 36.1568 138.113 34.9022C120.23 24.5908 102.33 14.311 84.4529 3.98912C79.6333 1.2067 74.9604 1.30814 70.1766 4.1305C63.0586 8.32832 27.4216 28.7455 16.8023 34.8964C12.4289 37.4281 10.3009 41.3027 10.2998 46.3388C10.293 67.0756 10.2998 87.8119 10.293 108.549C10.294 111.032 10.8138 113.232 11.8634 115.128C12.9424 117.078 14.5801 118.709 16.7965 119.992C27.4164 126.142 63.0581 146.558 70.1745 150.757C74.9604 153.581 79.6333 153.682 84.4545 150.898C102.332 140.576 120.233 130.297 138.119 119.985C140.335 118.703 141.973 117.071 143.052 115.123C144.1 113.226 144.621 111.027 144.622 108.543C144.622 108.543 144.622 67.0809 144.615 46.3436Z" fill="#5C8DBC"/>
<path fill-rule="evenodd" clip-rule="evenodd" d="M77.6629 77.2419L11.8634 115.128C12.9424 117.078 14.5801 118.709 16.7965 119.992C27.4164 126.142 63.0581 146.558 70.1745 150.757C74.9604 153.581 79.6333 153.682 84.4545 150.898C102.332 140.576 120.233 130.297 138.119 119.985C140.335 118.703 141.973 117.071 143.052 115.123L77.6629 77.2419Z" fill="#1A4674"/>
<path fill-rule="evenodd" clip-rule="evenodd" d="M58.1738 88.4641C62.0027 95.1485 69.2005 99.6569 77.4574 99.6569C85.7652 99.6569 93.004 95.0912 96.8135 88.3354L77.6629 77.2419L58.1738 88.4641Z" fill="#1A4674"/>
<path fill-rule="evenodd" clip-rule="evenodd" d="M144.615 46.3437C144.614 43.8051 144.071 41.5619 142.973 39.6367L77.663 77.242L143.052 115.123C144.1 113.226 144.621 111.027 144.622 108.543C144.622 108.543 144.622 67.081 144.615 46.3437Z" fill="#1B598E"/>
<path fill-rule="evenodd" clip-rule="evenodd" d="M141.02 79.9498H135.91V85.0606H130.799V79.9498H125.69V74.8407H130.799V69.731H135.91V74.8407H141.02V79.9498Z" fill="white"/>
<path fill-rule="evenodd" clip-rule="evenodd" d="M122.375 79.9498H117.265V85.0606H112.156V79.9498H107.046V74.8407H112.156V69.731H117.265V74.8407H122.375V79.9498Z" fill="white"/>
<path fill-rule="evenodd" clip-rule="evenodd" d="M96.8135 88.3354C93.0041 95.0912 85.7653 99.6569 77.4574 99.6569C69.2005 99.6569 62.0027 95.1485 58.1739 88.4642C56.3138 85.2161 55.2443 81.4556 55.2443 77.4438C55.2443 65.1762 65.1898 55.2312 77.4574 55.2312C85.6612 55.2312 92.8212 59.6834 96.6689 66.2994L116.084 55.1193C108.367 41.7979 93.9596 32.8357 77.4574 32.8357C52.8203 32.8357 32.8488 52.8078 32.8488 77.4438C32.8488 85.5262 34.9989 93.1056 38.7568 99.6433C46.4545 113.035 60.9032 122.052 77.4574 122.052C94.0421 122.052 108.513 112.999 116.2 99.5676L96.8135 88.3354Z" fill="white"/>
</svg>
