<svg width="150" height="150" viewBox="0 0 150 150" fill="none" xmlns="http://www.w3.org/2000/svg">
<path fill-rule="evenodd" clip-rule="evenodd" d="M140.163 44.8242C140.162 42.3609 139.635 40.1845 138.571 38.3169C137.526 36.4797 135.96 34.9406 133.86 33.7229C116.526 23.7183 99.1745 13.7441 81.8461 3.72925C77.1744 1.02997 72.6446 1.12814 68.0074 3.86658C61.1079 7.93966 26.564 27.7496 16.2704 33.7173C12.0316 36.174 9.96857 39.9333 9.96755 44.8196C9.96094 64.9399 9.96755 85.0591 9.96094 105.18C9.96195 107.589 10.466 109.723 11.4833 111.563C12.529 113.455 14.1164 115.037 16.2649 116.282C26.5589 122.25 61.1074 142.058 68.0054 146.132C72.6446 148.872 77.1744 148.97 81.8476 146.27C99.1765 136.254 116.529 126.281 133.866 116.276C136.014 115.031 137.602 113.449 138.647 111.558C139.663 109.718 140.168 107.584 140.169 105.174C140.169 105.174 140.169 64.945 140.163 44.8242Z" fill="#A9B9CB"/>
<path fill-rule="evenodd" clip-rule="evenodd" d="M81.7286 3.86058C77.0645 1.16792 72.5423 1.26608 67.9128 3.9974C61.0245 8.0598 26.5371 27.8184 16.2603 33.7709C12.028 36.2209 9.96857 39.9705 9.96755 44.8442C9.96094 64.912 9.96755 84.9794 9.96094 105.048C9.96195 107.45 10.465 109.579 11.4807 111.414C12.5249 113.302 14.1098 114.879 16.2547 116.121C18.6091 117.485 22.2356 119.574 26.5081 122.031L121.668 26.8713C108.353 19.2043 95.0348 11.5434 81.7286 3.86058Z" fill="#7F8B99"/>
<path fill-rule="evenodd" clip-rule="evenodd" d="M88.5213 65.8285L108.785 65.9714C108.785 57.5287 100.239 36.853 75.7375 36.853C60.1273 36.853 39.1414 46.7773 39.1414 75.3103C39.1414 103.843 59.7138 113.147 75.7375 113.147C101.686 113.147 107.888 95.1914 107.888 85.0444L88.5564 83.9391C88.5564 83.9391 89.0737 95.6757 75.6343 95.6757C63.2289 95.6757 61.1588 80.4789 61.1588 75.3103C61.1588 67.4535 63.9527 54.8411 75.6343 54.8411C87.3164 54.8411 88.5213 65.8285 88.5213 65.8285Z" fill="white"/>
</svg>
