<svg width="136" height="136" viewBox="0 0 136 136" fill="none" xmlns="http://www.w3.org/2000/svg">
<path fill-rule="evenodd" clip-rule="evenodd" d="M18.8823 122.404L7.96875 0H127.892L116.966 122.384L67.8576 136L18.8823 122.404Z" fill="#0071BC"/>
<path fill-rule="evenodd" clip-rule="evenodd" d="M68.0309 125.586L107.664 114.683L116.95 10.1938H68.0309V125.586Z" fill="#29ABE2"/>
<path fill-rule="evenodd" clip-rule="evenodd" d="M32.9498 55.1645L34.2645 70.1549L68.0309 55.1645V40.1499L32.9498 55.1645Z" fill="#B3B3B3"/>
<path fill-rule="evenodd" clip-rule="evenodd" d="M105.428 24.1226L68.0309 40.1499V55.1646L104.139 39.1129L105.428 24.1226Z" fill="#E6E6E6"/>
<path fill-rule="evenodd" clip-rule="evenodd" d="M68.0309 94.3866L67.9149 94.404L51.1692 89.9069L50.0752 77.95H35.0042L37.1073 101.506L67.9116 110.035L68.0309 110.007V94.3866Z" fill="#E6E6E6"/>
<path fill-rule="evenodd" clip-rule="evenodd" d="M68.0309 55.1646V70.1549H86.3647L84.6984 89.7536L68.0309 94.3994V110.018L98.7329 101.489L102.776 55.1646H68.0309Z" fill="white"/>
<path fill-rule="evenodd" clip-rule="evenodd" d="M68.0309 55.1646H32.9498L34.2645 70.1549H68.0309V55.1646Z" fill="#E6E6E6"/>
<path fill-rule="evenodd" clip-rule="evenodd" d="M68.031 39.1129V24.1226H67.8787H30.2847L31.6149 39.1129H68.031Z" fill="#E6E6E6"/>
<path fill-rule="evenodd" clip-rule="evenodd" d="M68.0309 24.1226V38.9249V39.1129H104.139L105.428 24.1226H68.0309Z" fill="white"/>
</svg>
