<svg width="128" height="128" viewBox="0 0 128 128" fill="none" xmlns="http://www.w3.org/2000/svg">
<path d="M42.8333 128C54.6093 128 64.1667 118.443 64.1667 106.667V85.3333H42.8333C31.0573 85.3333 21.5 94.8906 21.5 106.667C21.5 118.443 31.0573 128 42.8333 128Z" fill="#0ACF83"/>
<path d="M21.5 64.0001C21.5 52.2241 31.0573 42.6667 42.8333 42.6667H64.1667V85.3334H42.8333C31.0573 85.3334 21.5 75.7761 21.5 64.0001Z" fill="#A259FF"/>
<path d="M21.5 21.3333C21.5 9.55733 31.0573 0 42.8333 0H64.1667V42.6667H42.8333C31.0573 42.6667 21.5 33.1093 21.5 21.3333Z" fill="#F24E1E"/>
<path d="M64.1667 0H85.5001C97.2761 0 106.833 9.55733 106.833 21.3333C106.833 33.1093 97.2761 42.6667 85.5001 42.6667H64.1667V0Z" fill="#FF7262"/>
<path d="M106.833 64.0001C106.833 75.7761 97.2761 85.3334 85.5001 85.3334C73.7241 85.3334 64.1667 75.7761 64.1667 64.0001C64.1667 52.2241 73.7241 42.6667 85.5001 42.6667C97.2761 42.6667 106.833 52.2241 106.833 64.0001Z" fill="#1ABCFE"/>
</svg>
