<svg width="138" height="138" viewBox="0 0 138 138" fill="none" xmlns="http://www.w3.org/2000/svg">
<path fill-rule="evenodd" clip-rule="evenodd" d="M19.1597 124.205L8.08594 0H129.767L118.682 124.186L68.8522 138L19.1597 124.205Z" fill="#E44D26"/>
<path fill-rule="evenodd" clip-rule="evenodd" d="M68.9266 127.441L109.191 116.278L118.665 10.1555H68.9266V127.441Z" fill="#F16529"/>
<path d="M48.769 56.2214H68.9266V71.4544H34.8376L30.7289 25.3889H68.9266V40.6223H47.3769L48.769 56.2214Z" fill="#EBEBEB"/>
<path d="M68.8599 95.8015L68.9266 95.7837V111.633L68.8565 111.652L37.6524 102.99L35.5182 79.0713H50.81L51.8945 91.2205L68.8599 95.8015Z" fill="#EBEBEB"/>
<path d="M68.874 25.3889H107.034L105.67 40.6223H68.874V25.3889Z" fill="white"/>
<path d="M68.874 71.4544V56.2214H104.283L103.912 60.3119L100.103 102.99L68.874 111.645V95.7965L85.8639 91.2108L87.6321 71.4544H68.874Z" fill="white"/>
</svg>
