<svg width="142" height="142" viewBox="0 0 142 142" fill="none" xmlns="http://www.w3.org/2000/svg">
<g clip-path="url(#clip0_27_48)">
<path d="M70.3185 0.554688C34.3568 0.55469 36.6025 16.1498 36.6025 16.1498L36.6426 32.3062H70.9599V37.1572H23.0119C23.0119 37.1572 0 34.5474 0 70.8331C-2.56487e-06 107.119 20.0853 105.832 20.0853 105.832H32.0723V88.994C32.0723 88.994 31.4261 68.9087 51.8368 68.9087H85.8735C85.8735 68.9087 104.997 69.2178 104.997 50.4271V19.3571C104.997 19.3571 107.9 0.554688 70.3185 0.554688ZM51.3958 11.4192C54.8101 11.4192 57.5697 14.1788 57.5697 17.5931C57.5697 21.0074 54.8101 23.767 51.3958 23.767C47.9815 23.767 45.2219 21.0074 45.2219 17.5931C45.2219 14.1788 47.9815 11.4192 51.3958 11.4192Z" fill="url(#paint0_linear_27_48)"/>
<path d="M71.3398 141.475C107.301 141.475 105.056 125.88 105.056 125.88L105.016 109.724H70.6983V104.873H118.646C118.646 104.873 141.658 107.483 141.658 71.1969C141.658 34.9113 121.573 36.198 121.573 36.198H109.586V53.036C109.586 53.036 110.232 73.1212 89.8214 73.1212H55.7847C55.7847 73.1212 36.6616 72.8121 36.6616 91.6029V122.673C36.6616 122.673 33.7582 141.475 71.3398 141.475ZM90.2624 130.611C86.8481 130.611 84.0885 127.851 84.0885 124.437C84.0885 121.023 86.8481 118.263 90.2624 118.263C93.6767 118.263 96.4363 121.023 96.4363 124.437C96.4363 127.851 93.6767 130.611 90.2624 130.611Z" fill="url(#paint1_linear_27_48)"/>
</g>
<defs>
<linearGradient id="paint0_linear_27_48" x1="13.6136" y1="13.2301" x2="83.8143" y2="82.7304" gradientUnits="userSpaceOnUse">
<stop stop-color="#387EB8"/>
<stop offset="1" stop-color="#366994"/>
</linearGradient>
<linearGradient id="paint1_linear_27_48" x1="56.7028" y1="57.8587" x2="132.091" y2="129.125" gradientUnits="userSpaceOnUse">
<stop stop-color="#FFE052"/>
<stop offset="1" stop-color="#FFC331"/>
</linearGradient>
<clipPath id="clip0_27_48">
<rect width="142" height="142" fill="white"/>
</clipPath>
</defs>
</svg>
